<?xml version="1.0" encoding="UTF-8" standalone="no"?><!-- Generator: Gravit.io --><svg xmlns="http://www.w3.org/2000/svg" xmlns:xlink="http://www.w3.org/1999/xlink" style="isolation:isolate" viewBox="0 0 1100 800" width="1100pt" height="800pt"><defs><clipPath id="_clipPath_4QdQuQdRp6e4a9CRiK0CQPjQUlPNkMAS"><rect x="0" y="0" width="1100" height="800"/></clipPath></defs><g clip-path="url(#_clipPath_4QdQuQdRp6e4a9CRiK0CQPjQUlPNkMAS)"><g><clipPath id="_clipPath_bxhyKgH9wmDgqeu1lsa1vUeoRFsBJrJI"><path d=" M 0 0 L 0 800 L 1100 800 L 1100 0 L 0 0 Z " fill="rgb(255,255,255)"/></clipPath><g clip-path="url(#_clipPath_bxhyKgH9wmDgqeu1lsa1vUeoRFsBJrJI)"><path d=" M 917.845 743.903 C 911.682 743.903 905.487 743.671 899.221 743.104 C 875.284 740.941 851.021 739.86 827.203 736.773 C 772.541 729.684 717.854 729.266 662.794 729.266 C 640.932 729.266 619.073 729.068 597.216 729.068 C 565.391 729.068 533.576 729.487 501.815 731.546 C 452.257 734.758 402.615 735.27 352.967 735.27 C 345.488 735.27 338.008 735.258 330.529 735.242 C 330.042 735.241 329.556 735.241 329.07 735.241 C 301.589 735.241 274.218 736.881 246.779 738.039 C 219.213 739.203 192.408 741.114 165.001 741.114 C 162.53 741.114 160.05 741.098 157.568 741.065 C 130.184 740.7 88.488 732.973 68.951 713.28 C 57.352 701.579 58.924 673.429 70.541 662.147 C 75.616 657.219 83.796 653.358 90.479 651.011 C 109.516 644.32 128.888 644.305 148.781 644.165 C 149.023 644.163 149.264 644.162 149.506 644.162 C 163.234 644.162 177.508 646.842 190.664 650.565 C 202.633 653.952 214.862 655.14 227.035 657.248 C 236.995 658.974 247.652 659.8 258.19 659.8 C 265.05 659.8 271.861 659.449 278.395 658.769 C 296.069 656.931 313.87 656.076 331.595 654.627 C 335.502 654.307 339.393 653.922 343.275 653.492 L 341.225 671.613 L 355.361 676.381 L 364.726 650.791 C 369.837 650.104 374.947 649.41 380.066 648.76 L 380.071 695 L 713.003 694.961 L 712.998 650.702 L 727.728 651.143 L 727.6 642.641 C 735.23 642.937 742.825 643.246 750.385 644.853 C 762.173 647.358 774.073 649.645 786.151 650.091 C 796.491 650.473 806.86 650.599 817.243 650.599 C 835.693 650.599 854.178 650.201 872.566 650.137 C 874.409 650.13 876.972 650.119 880.153 650.119 C 921.326 650.119 1064.76 651.951 1054.47 689.021 C 1050.52 703.266 1027.53 721.806 1014.64 727.773 C 998.353 735.311 980.54 739.772 962.611 741.275 C 947.5 742.543 932.766 743.903 917.845 743.903 Z " fill="rgb(230,239,246)"/><path d=" M 439.423 247.118 L 109.486 345.104 L 68.118 205.812 L 398.055 107.826 L 439.423 247.118 Z " fill="rgb(255,255,255)"/><path d=" M 161.82 288.987 L 119.794 227.402 L 136.658 222.394 L 153.486 248.714 C 158.208 256.103 162.638 263.25 166.772 271.252 L 167.075 271.163 C 166.363 262.473 166.084 253.764 166.098 245.299 L 166.146 213.637 L 182.504 208.778 L 179.795 283.648 L 161.82 288.987 Z " fill="rgb(59,69,90)"/><path d=" M 212.26 237.193 C 216.219 250.524 225.269 258.056 235.569 254.997 C 245.97 251.908 248.989 240.242 245.06 227.014 C 241.432 214.795 232.456 206.032 221.853 209.181 C 211.451 212.27 208.332 223.965 212.26 237.193 Z  M 261.168 221.68 C 267.796 243.998 258.283 261.547 238.39 267.455 C 218.193 273.453 201.85 261.714 196.092 242.325 C 190.034 221.927 198.532 202.81 218.627 196.842 C 239.531 190.634 255.591 202.897 261.168 221.68 Z " fill="rgb(59,69,90)"/><path d=" M 275.508 195.224 L 257.23 200.652 L 253.391 187.727 L 305.7 172.192 L 309.539 185.118 L 290.958 190.635 L 307.333 245.772 L 291.882 250.361 L 275.508 195.224 Z " fill="rgb(59,69,90)"/><path d=" M 366.038 197.02 L 340.994 204.458 L 345.792 220.614 L 373.765 212.307 L 377.513 224.93 L 334.091 237.826 L 313.877 169.764 L 355.887 157.288 L 359.635 169.91 L 333.077 177.798 L 337.275 191.935 L 362.319 184.498 L 366.038 197.02 Z " fill="rgb(59,69,90)"/><path d=" M 653.811 376.016 L 448.619 311.51 L 475.852 224.882 L 681.044 289.389 L 653.811 376.016 Z " fill="rgb(255,255,255)"/><path d=" M 495.403 300.678 L 495.145 254.084 L 505.633 257.381 L 505.156 276.899 C 505.021 282.377 504.819 287.628 504.167 293.219 L 504.354 293.278 C 507.022 288.528 509.92 283.917 512.885 279.536 L 523.972 263.146 L 534.146 266.345 L 506.583 304.192 L 495.403 300.678 Z " fill="rgb(59,69,90)"/><path d=" M 539.634 291.465 C 537.028 299.755 539.087 306.819 545.491 308.833 C 551.962 310.867 557.601 305.877 560.188 297.65 C 562.576 290.051 560.987 282.374 554.394 280.301 C 547.925 278.268 542.221 283.238 539.634 291.465 Z  M 570.397 300.515 C 566.034 314.395 554.974 320.165 542.601 316.275 C 530.041 312.327 525.674 300.534 529.464 288.475 C 533.453 275.789 544.536 268.853 557.033 272.781 C 570.034 276.869 574.07 288.834 570.397 300.515 Z " fill="rgb(59,69,90)"/><path d=" M 587.069 291.816 L 575.703 288.242 L 578.23 280.204 L 610.763 290.431 L 608.235 298.47 L 596.68 294.836 L 585.899 329.127 L 576.29 326.106 L 587.069 291.816 Z " fill="rgb(59,69,90)"/><path d=" M 633.352 324.377 L 617.775 319.481 L 614.617 329.529 L 632.014 334.999 L 629.546 342.848 L 602.541 334.358 L 615.848 292.029 L 641.974 300.243 L 639.506 308.093 L 622.988 302.901 L 620.224 311.693 L 635.8 316.59 L 633.352 324.377 Z " fill="rgb(59,69,90)"/><path d=" M 1010.54 242.783 L 756.846 273.97 L 743.68 166.864 L 997.377 135.678 L 1010.54 242.783 Z " fill="rgb(255,255,255)"/><path d=" M 802.313 239.261 L 778.889 188.51 L 791.979 186.9 L 801.152 208.45 C 803.726 214.5 806.114 220.333 808.178 226.764 L 808.413 226.735 C 808.965 220.222 809.841 213.749 810.901 207.491 L 814.867 184.087 L 827.565 182.525 L 816.267 237.545 L 802.313 239.261 Z " fill="rgb(59,69,90)"/><path d=" M 846.036 207.23 C 847.308 217.577 853.064 224.27 861.06 223.287 C 869.133 222.295 872.813 214.044 871.552 203.776 C 870.386 194.291 864.837 186.697 856.607 187.709 C 848.533 188.702 844.774 196.961 846.036 207.23 Z  M 884.124 201.832 C 886.253 219.155 877.04 230.95 861.599 232.848 C 845.921 234.775 835.295 224.066 833.444 209.016 C 831.498 193.183 840.155 180.103 855.754 178.186 C 871.979 176.19 882.331 187.252 884.124 201.832 Z " fill="rgb(59,69,90)"/><path d=" M 898.009 184.051 L 883.82 185.796 L 882.587 175.762 L 923.191 170.771 L 924.425 180.804 L 910.002 182.577 L 915.263 225.375 L 903.27 226.85 L 898.009 184.051 Z " fill="rgb(59,69,90)"/><path d=" M 964.719 196.619 L 945.279 199.009 L 946.821 211.551 L 968.534 208.882 L 969.738 218.68 L 936.032 222.823 L 929.538 169.991 L 962.146 165.981 L 963.351 175.781 L 942.735 178.315 L 944.085 189.289 L 963.524 186.899 L 964.719 196.619 Z " fill="rgb(59,69,90)"/><path d=" M 626.562 402.869 L 625.891 409.809 L 613.118 412.673 L 606.776 406.438 L 607.812 398.391 L 614.647 398.89 L 615.09 397.148 L 617.497 396.005 L 626.562 402.869 Z " fill="rgb(228,210,184)"/><path d=" M 944.672 510.858 L 947.399 574.133 L 939.402 681.722 L 927.436 682.571 L 912.896 584.855 L 892.784 502.169 L 944.672 510.858 Z " fill="rgb(59,69,90)"/><path d=" M 927.863 687.613 L 941.264 693.164 L 947.274 686.233 L 940.344 680.223 L 927.403 681.143 L 927.863 687.613 Z " fill="rgb(85,99,98)"/><path d=" M 859.961 488.468 L 857.335 536.296 L 865.127 678.508 L 877.109 679.106 L 895.066 585.834 L 910.905 483.549 L 859.961 488.468 Z " fill="rgb(59,69,90)"/><path d=" M 876.787 684.155 L 863.507 689.986 L 857.352 683.185 L 864.154 677.029 L 877.111 677.677 L 876.787 684.155 Z " fill="rgb(85,99,98)"/><path d=" M 929.629 347.57 L 892.239 343.564 C 892.239 343.564 871.438 345.787 857.325 395.184 C 849.473 422.667 847.083 465.966 846.508 498.977 C 847.391 503.686 852.521 524.313 874.214 520.813 C 911.466 514.805 931.294 508.797 947.517 511.801 C 961.336 514.805 960.168 495.778 958.649 481.259 L 953.143 436.333 L 929.629 347.57 Z " fill="rgb(188,190,192)"/><path d=" M 922.408 301.028 C 912.984 298.951 903.285 297.09 893.851 298.958 C 891.784 299.367 889.566 300.085 888.445 301.869 C 888.012 302.561 887.781 303.357 887.569 304.146 C 885.188 312.995 882.169 326.114 887.994 334.268 C 889.105 335.822 890.598 337.057 892.201 338.059 C 894.345 339.398 896.718 340.309 899.172 340.794 C 898.664 342.994 897.958 345.148 897.062 347.221 C 899.219 350.474 909.283 350.864 911.144 347.745 C 911.248 345.046 911.353 342.348 911.456 339.649 C 912.682 339.154 913.865 338.553 914.977 337.821 C 919.277 334.988 922.111 330.689 923.758 325.879 C 925.551 320.643 928.072 315.665 929.71 310.327 C 930.307 308.382 930.777 306.163 929.754 304.405 C 928.665 302.534 926.314 301.897 924.201 301.426 C 923.604 301.293 923.007 301.16 922.408 301.028 Z " fill="rgb(160,115,75)"/><path d=" M 891.041 306.088 C 895.698 303.093 902.687 301.803 907.066 302.12 C 920.308 303.08 925.159 312.804 925.866 324.979 C 929.515 320.342 936.36 314.511 936.773 308.544 C 937.111 303.661 936.437 297.002 933.701 292.784 C 931.141 288.838 924.595 286.671 920.702 284.384 C 917.032 282.229 913.363 280.073 909.693 277.917 C 908.931 277.469 908.146 277.013 907.273 276.862 C 906.242 276.683 905.191 276.946 904.178 277.208 C 895.505 279.45 886.832 281.691 878.159 283.933 C 876.493 284.363 874.595 284.993 873.981 286.6 C 873.607 287.578 873.827 288.67 874.051 289.693 C 875.035 294.195 876.926 298.797 877.394 303.358 C 877.924 306.008 879.503 319.589 884.195 318.021 C 885.573 315.769 885.779 312.994 886.853 310.582 C 887.646 308.799 889.151 307.303 891.041 306.088 Z " fill="rgb(59,69,90)"/><path d=" M 892.239 343.564 L 878.42 347.77 L 827.948 400.644 L 824.944 418.068 L 849.072 457.906 L 855.588 443.305 L 845.373 413.863 L 861.596 402.447 L 883.227 353.778 L 892.239 343.564 Z " fill="rgb(188,190,192)"/><path d=" M 921.698 350.768 L 947.399 323.002 L 941.345 247.751 L 952.638 242.791 L 968 319.126 L 963.299 338.151 L 934.485 377.899 L 921.698 350.768 Z " fill="rgb(188,190,192)"/><path d=" M 746.882 665.318 C 748.159 663.913 749.649 663.146 751.333 663.41 C 752.95 663.665 754.405 664.761 755.071 666.228 C 755.526 667.227 755.623 668.342 755.713 669.433 C 756.179 675.077 756.137 688.479 748.618 690.407 C 745.459 691.218 742.845 688.973 742.001 686.136 C 740.73 681.861 742.612 670.02 746.882 665.318 Z " fill="rgb(50,54,67)"/><path d=" M 744.207 580.168 L 744.602 614.596 C 744.144 629.889 746.531 645.266 746.073 660.56 C 745.968 664.075 745.052 667.785 745.938 671.271 C 746.805 674.68 749.574 675.283 752.419 673.557 C 756.229 671.243 755.614 665.841 756.249 661.9 C 757.992 651.071 760.037 640.292 761.857 629.476 C 762.75 624.173 760.91 616.742 761.311 611.375 L 766.872 582.522 L 744.207 580.168 Z " fill="rgb(239,203,160)"/><path d=" M 783.544 524.539 L 768.56 591.101 L 765.377 653.958 L 741.617 653.424 L 735.156 477.603 L 781.216 478.438 L 783.544 524.539 Z " fill="rgb(64,73,95)"/><path d=" M 712.897 664.067 C 714.23 662.736 715.748 662.056 717.415 662.42 C 719.017 662.771 720.419 663.953 721.021 665.46 C 721.432 666.487 721.479 667.608 721.523 668.705 C 721.747 674.382 721.132 687.791 713.556 689.279 C 710.372 689.903 707.862 687.503 707.143 684.613 C 706.059 680.261 708.44 668.521 712.897 664.067 Z " fill="rgb(50,54,67)"/><path d=" M 725.421 585.001 L 723.404 619.373 C 723.24 628.926 721.967 638.403 720.979 647.892 C 720.06 656.704 721.489 665.884 716.884 673.899 C 715.439 676.412 712.52 678.086 710.479 675.032 C 708.907 672.679 709.842 668.753 709.54 666.083 C 708.309 655.185 706.774 644.322 705.466 633.434 C 704.824 628.095 707.012 620.757 706.865 615.378 L 702.67 586.298 L 725.421 585.001 Z " fill="rgb(239,203,160)"/><path d=" M 695.354 520.469 L 693.42 585.081 L 703.559 650.42 L 727.728 651.143 L 726.661 580.43 L 739.451 521.789 L 743.744 483.403 L 705.395 478.88 L 695.354 520.469 Z " fill="rgb(64,73,95)"/><path d=" M 725.69 346.648 L 767.006 345.662 L 790.96 390.212 L 782.446 431.939 L 780.93 481.876 L 721.995 482.681 L 702.604 479.532 L 707.753 426.176 L 704.801 354.902 L 725.69 346.648 Z " fill="rgb(48,83,153)"/><path d=" M 719.184 376 L 704.265 421.732 L 681.999 429.726 L 621.087 413.313 L 629.275 400.651 L 682.847 402.395 L 704.884 356.895 L 719.184 376 Z " fill="rgb(48,83,153)"/><path d=" M 728.277 312.032 C 734.506 293.924 758.411 300.71 763.34 316.834 C 766.555 327.352 758.432 341 747.534 344.021 C 747.486 344.435 747.45 344.821 747.448 345.149 C 747.44 346.838 747.233 348.502 746.982 350.189 C 746.89 350.818 737.352 348.985 736.288 348.776 C 735.916 348.703 735.501 348.602 735.301 348.29 C 734.916 347.69 735.542 345.927 735.611 345.262 C 735.694 344.476 735.776 343.691 735.859 342.905 C 730.483 340.281 727.091 334.693 726.145 329.003 C 725.192 323.288 726.406 317.474 728.277 312.032 Z " fill="rgb(239,203,160)"/><path d=" M 743.874 295.669 C 745.155 296.971 745.659 298.786 746.029 300.529 C 746.25 301.57 746.439 302.646 746.217 303.678 C 745.329 307.789 741.252 307.574 738.099 308.898 C 734.211 310.532 730.857 313.541 728.681 317.005 C 725.271 322.43 726.805 329.411 728.188 335.395 C 728.675 337.503 729.655 340.639 728.02 342.52 C 726.358 344.431 722.517 344.136 720.526 343.152 C 718.708 342.254 717.214 340.592 715.217 340.258 C 713.104 339.904 710.247 340.833 709.263 338.894 C 708.989 338.354 708.964 337.695 708.618 337.201 C 707.451 335.531 704.546 337.486 702.9 336.309 C 701.888 335.585 701.895 334.042 702.237 332.821 C 702.58 331.6 703.156 330.362 702.918 329.12 C 702.713 328.052 701.942 327.208 701.467 326.237 C 700.526 324.319 700.852 321.82 702.251 320.2 C 704.854 317.188 709.891 317.76 712.68 314.927 C 714.132 313.451 714.695 311.322 715.236 309.307 C 715.778 307.292 716.429 305.168 717.981 303.803 C 719.899 302.117 722.67 302.403 724.563 300.403 C 725.675 299.228 726.416 297.698 727.664 296.675 C 729.31 295.327 732.526 294.291 734.572 293.603 C 737.818 292.512 741.448 293.207 743.874 295.669 Z " fill="rgb(59,69,90)"/><path d=" M 758.995 324.566 C 759.106 330.526 756.146 336.97 758.892 342.216 C 761.662 347.511 768.568 348.465 774.455 348.741 C 775.424 348.787 787.848 349.859 787.9 349.624 C 788.83 345.473 789.792 341.239 791.962 337.593 C 794.132 333.948 797.76 330.928 801.914 330.669 C 800.715 330.461 800.111 328.993 800.249 327.756 C 800.388 326.519 801.029 325.403 801.399 324.214 C 802.31 321.293 801.424 317.885 799.221 315.832 C 794.826 311.735 786.858 313.437 783.091 308.732 C 780.755 305.815 781.033 301.584 779.809 298.022 C 777.442 291.136 769.902 289.695 764.267 286.584 C 758.318 283.302 752.717 281.502 745.851 282.646 C 737.339 284.065 731.012 292.73 734.295 300.885 C 738.505 311.344 755.337 310.441 758.489 321.061 C 758.827 322.201 758.973 323.374 758.995 324.566 Z " fill="rgb(59,69,90)"/><path d=" M 754.784 346.412 L 741.967 364.527 L 735.941 364.034 L 725.899 345.662 L 754.784 346.412 Z " fill="rgb(227,227,228)"/><path d=" M 285.705 361.78 L 330.502 394.469 L 369.566 377.591 L 375.299 388.13 L 345.713 408.28 L 329.128 414.479 L 285.705 393.573 L 285.705 361.78 Z " fill="rgb(48,83,153)"/><path d=" M 341.687 674.069 L 340.747 681.384 L 354.436 690.58 L 362.691 684.206 L 356.317 675.95 L 342.627 666.754 L 341.687 674.069 Z " fill="rgb(64,73,95)"/><path d=" M 341.225 671.613 L 351.782 578.324 L 339.079 473.886 L 341.936 451.67 L 398.67 449.515 L 400.718 485.674 L 391.193 578.467 L 355.361 676.381 L 341.225 671.613 Z " fill="rgb(48,83,153)"/><path d=" M 440.3 459.97 L 440.449 554.111 L 421.5 675.302 L 407.86 675.166 L 400.363 563.093 L 382.817 450.919 L 440.3 459.97 Z " fill="rgb(48,83,153)"/><path d=" M 407.882 680.918 L 422.558 688.439 L 430.006 681.139 L 422.705 673.69 L 407.955 673.543 L 407.882 680.918 Z " fill="rgb(64,73,95)"/><path d=" M 333.209 491.987 C 333.338 487.907 333.565 484.503 333.598 483.287 C 333.89 472.344 334.865 461.425 336.235 450.559 C 337.462 440.821 339.012 416.648 340.679 406.971 C 342.055 398.98 346.849 379.036 350.313 371.625 C 358.928 353.195 356.266 351.493 394.108 346.02 C 410.693 343.622 414.613 353.957 428.172 365.843 C 429.509 367.016 429.436 373.995 429.746 375.844 C 430.293 379.099 430.878 382.348 431.549 385.582 C 432.077 388.125 432.659 390.658 433.311 393.176 L 433.31 393.175 C 433.31 393.175 444.693 444.975 452.22 455.977 C 459.748 466.978 475.299 482.358 449.285 491.749 C 444.675 493.239 440.037 494.658 435.238 495.416 C 435.238 495.416 413.963 493.052 403.022 493.133 C 392.946 493.208 382.828 494.229 372.921 495.936 C 366.296 497.044 359.537 498.652 353.611 501.748 C 347.958 504.701 343.877 509.045 338.14 512.104 C 337.597 512.392 337.002 512.692 336.384 512.606 C 333.089 512.15 332.935 500.573 333.209 491.987 Z " fill="rgb(59,69,90)"/><path d=" M 394.151 351.217 C 392.242 352.16 387.736 352.499 383.035 350.657 C 382.087 350.286 381.448 349.373 381.461 348.355 C 381.499 345.5 381.729 342.647 382.148 339.822 C 378.623 338.583 374.548 336.723 373.934 333.037 C 373.74 331.875 373.941 330.688 374.141 329.529 C 374.97 324.733 375.799 319.938 376.627 315.142 C 376.914 313.483 377.219 311.776 378.121 310.354 C 379.704 307.861 382.775 306.77 385.686 306.265 C 393.112 304.976 401.204 306.584 406.962 311.448 C 408.495 312.743 409.88 314.299 410.556 316.188 C 411.597 319.1 410.818 322.312 410.033 325.304 C 409.308 328.065 408.583 330.826 407.858 333.587 C 407.024 336.763 405.82 340.374 402.76 341.564 C 401.135 342.197 399.217 342.012 397.746 342.948 C 395.152 344.598 395.501 348.455 394.151 351.217 Z " fill="rgb(234,193,164)"/><path d=" M 437.012 303.391 C 437.741 302.193 438.527 301.038 439.406 299.954 C 441.311 297.606 443.657 295.594 445.189 292.988 C 446.722 290.382 447.261 286.85 445.422 284.45 C 444.236 282.901 442.31 282.127 440.438 281.577 C 434.272 279.762 427.617 279.639 421.387 281.225 C 415.453 282.735 410.143 285.236 404.17 283.005 C 398.558 280.91 394.504 281.764 388.639 283.856 C 382.292 286.121 373.771 286.655 368.025 289.853 C 365.625 291.188 363.711 293.274 362.219 295.579 C 357.049 303.564 357.02 314.575 362.148 322.586 C 363.299 324.384 364.676 326.027 366.123 327.596 C 369.117 330.843 372.699 334.854 376.818 336.058 C 376.917 332.373 373.56 320.753 376.39 317.733 C 380.881 312.94 391.036 314.612 396.607 315.792 C 402.685 317.079 408.102 321.383 414.126 322.303 C 418.462 322.964 423.996 320.838 427.683 318.597 C 432.232 315.83 434.35 307.762 437.012 303.391 Z " fill="rgb(59,69,90)"/><path d=" M 362.691 353.103 L 339.08 373.792 L 312.739 429.146 L 346.009 468.727 L 351.732 446.593 L 362.691 353.103 Z " fill="rgb(59,69,90)"/><path d=" M 266.889 522.186 L 216.285 505.204 L 229.12 592.633 L 225.307 668.488 L 225.16 668.997 L 225.28 669.007 L 225.272 669.173 L 235.177 669.832 L 235.179 669.822 L 235.547 669.853 L 255.672 601.79 L 265.291 529.629 L 266.889 522.186 Z " fill="rgb(207,208,209)"/><path d=" M 234.762 673.296 L 224.51 673.33 L 222.141 682.049 L 222.402 682.119 L 222.336 682.128 L 239.561 691.679 L 247.64 692.344 L 248.4 683.11 L 246.179 681.579 L 234.762 673.296 Z " fill="rgb(64,73,95)"/><path d=" M 306.254 522.715 L 295.528 673.348 L 285.628 674.081 L 273.347 593.264 L 253.771 512.986 L 306.254 522.715 Z " fill="rgb(207,208,209)"/><path d=" M 295.602 676.835 L 308.944 683.903 L 307.891 690.134 L 284.331 687.27 L 285.455 678.305 L 295.602 676.835 Z " fill="rgb(64,73,95)"/><path d=" M 202.485 547.446 C 201.429 521.982 224.171 441.008 224.171 441.008 L 224.168 441.006 C 226.573 433.397 228.408 425.658 229.506 417.899 C 230.288 412.375 246.84 349.596 245.743 349.516 C 257.145 350.349 279.129 347.653 287.574 355.751 C 287.815 355.982 288.046 356.222 288.264 356.472 C 294.849 363.98 298.27 379.184 301.382 388.542 C 305.472 400.833 308.613 413.44 310.759 426.216 C 312.634 437.387 313.749 448.67 314.537 459.966 C 315.213 469.676 314.676 479.332 315.007 488.885 C 315.373 499.459 318.545 510.924 320.911 521.211 C 323.293 531.571 326.318 541.808 330.502 551.593 C 319.182 556.603 306.574 557.956 294.195 558.004 C 281.815 558.051 269.453 556.856 257.075 557.047 C 246.608 557.208 236.013 558.349 225.757 556.25 C 217.602 554.58 210.073 550.95 202.484 547.446 L 202.485 547.446 Z " fill="rgb(48,83,153)"/><path d=" M 284.778 322.89 C 289.981 325.461 295.406 332.088 295.071 338.258 C 294.909 341.229 293.266 343.537 293.22 346.724 C 293.104 353.006 283.58 359.583 289.41 365.641 C 292.406 368.755 297.09 369.365 301.389 369.797 C 301.911 369.849 302.458 369.898 302.94 369.694 C 303.735 369.358 304.123 368.416 304.104 367.554 C 304.086 366.691 303.753 365.872 303.492 365.049 C 300.756 356.45 304.887 346.423 305.375 337.662 C 305.861 328.917 303.791 319.477 296.622 313.778 C 291.815 315.244 288.233 317.274 285.87 321.71 L 284.778 322.89 Z " fill="rgb(59,69,90)"/><path d=" M 281.545 360.208 C 287.473 359.462 292.511 355.087 295.272 349.789 C 298.034 344.491 298.8 338.371 298.828 332.396 C 298.922 312.515 274.32 311.173 264.43 325.366 C 255.811 337.735 264.309 362.379 281.545 360.208 Z " fill="rgb(234,193,164)"/><path d=" M 251.761 362.633 C 254.814 361.763 257.839 360.804 260.204 358.225 C 264.024 354.055 265.165 346.203 266.965 341.008 C 268.861 335.532 271.104 329.615 276.081 326.646 C 279.332 324.708 282.604 324.857 286.166 325.495 C 288.605 325.932 288.518 326.87 290.829 325.968 C 292.601 325.277 294.532 322.555 295.239 320.88 C 296.43 318.055 295.856 314.717 294.36 312.041 C 292.058 307.922 288.853 305.472 284.359 304.487 C 268.587 301.03 254.853 308.089 247.352 322.69 C 243.746 329.708 243.71 338.301 240.015 345.011 C 237.734 349.154 234.325 351.543 232.253 356.025 C 226.878 367.654 217.067 381.949 215.103 394.679 C 215.03 395.15 214.984 395.679 215.273 396.058 C 215.862 396.829 217.081 396.269 217.844 395.669 C 222.297 392.165 226.751 388.661 231.205 385.158 C 232.954 383.782 234.727 382.381 236.029 380.576 C 239.271 376.083 239.349 369.464 243.703 366.038 C 246.079 364.168 248.932 363.438 251.761 362.633 Z " fill="rgb(59,69,90)"/><path d=" M 177.892 338.548 C 174.912 339.104 167.151 337.027 165.369 334.288 C 161.253 327.966 171.016 329.913 174.543 329.827 C 174.139 328.603 173.712 327.432 173.556 326.177 C 173.413 325.027 183.89 328.013 184.899 329.111 C 187.322 331.745 186.217 333.734 185.999 337.065 C 183.293 337.495 180.591 338.044 177.892 338.548 Z " fill="rgb(217,202,175)"/><path d=" M 260.286 402.097 L 203.033 392.571 L 176.669 339.107 L 187.149 330.471 L 215.048 367.493 L 244.197 366.254 L 271.178 367.423 L 260.286 402.097 Z " fill="rgb(48,83,153)"/><path d=" M 950.221 243.853 L 950.221 236.964 L 942.285 226.465 L 936.854 231.312 L 940.411 240.64 L 938.162 243.853 L 941.345 247.751 L 950.221 243.853 Z " fill="rgb(160,115,75)"/><path d=" M 509.221 334.081 L 517.884 323.15 L 513.375 319.245 L 505.784 325.416 L 504.508 322.579 L 498.235 332.835 L 502.375 337.529 L 509.221 334.081 Z " fill="rgb(217,202,175)"/><path d=" M 398.429 349.386 L 464.434 353.386 L 498.235 332.835 L 504.19 338.609 L 479.216 374.524 L 431.396 384.722 L 398.429 349.386 Z " fill="rgb(59,69,90)"/><path d=" M 713.003 694.961 L 380.071 695 L 380.038 414.199 L 712.97 414.16 L 713.003 694.961 Z " fill="rgb(125,181,219)"/><path d=" M 718.601 485.068 L 374.424 485.109 L 374.416 414.2 L 718.592 414.159 L 718.601 485.068 Z " fill="rgb(88,123,201)"/><clipPath id="_clipPath_VSkEYDxmdfRfm8bsmvzHH5JBGnszRTWc"><path d=" M 712.986 495.402 L 712.986 495.402 L 712.978 485.111 L 712.986 485.111 L 712.986 495.402 Z " fill="rgb(255,255,255)"/></clipPath><g clip-path="url(#_clipPath_VSkEYDxmdfRfm8bsmvzHH5JBGnszRTWc)"><path d=" M 712.978 485.111 L 712.986 485.111 L 712.986 495.402 L 712.978 495.402 L 712.978 485.111 Z " fill="rgb(57,66,85)"/></g><path d=" M 380.048 495.402 L 380.031 495.402 L 380.031 494.837 C 380.037 494.836 380.041 494.835 380.048 494.834 L 380.048 495.402 Z " fill="rgb(43,75,137)"/><path d=" M 380.031 494.837 L 380.03 485.111 L 380.046 485.111 L 380.048 494.834 C 380.041 494.835 380.037 494.836 380.031 494.837 Z " fill="rgb(53,62,81)"/><path d=" M 712.986 495.402 L 380.048 495.402 L 380.048 494.834 L 380.046 485.111 L 712.986 485.111 L 712.979 495.402" fill="rgb(112,163,197)"/><path d=" M 614.607 539.876 L 590.82 516.09 L 546.508 560.402 L 502.195 516.09 L 478.409 539.876 L 522.722 584.189 L 478.409 628.502 L 502.195 652.288 L 546.508 607.976 L 590.82 652.288 L 614.607 628.502 L 570.295 584.189 L 614.607 539.876 Z " fill="rgb(255,255,255)"/><path d=" M 374.989 477.391 L 387.088 484.328 L 390.279 479.286 L 383.045 472.7 L 385.661 471.017 L 374.584 466.341 L 370.56 471.134 L 374.989 477.391 Z " fill="rgb(217,202,175)"/><path d=" M 815.945 495.521 L 663.009 524.25 L 650.88 459.684 L 803.815 430.954 L 815.945 495.521 Z " fill="rgb(255,255,255)"/><path d=" M 689.107 501.489 L 673.072 471.842 L 680.889 470.374 L 687.232 482.991 C 689.012 486.533 690.672 489.953 692.159 493.745 L 692.3 493.718 C 692.383 489.776 692.663 485.848 693.063 482.043 L 694.556 467.807 L 702.138 466.382 L 697.439 499.923 L 689.107 501.489 Z " fill="rgb(59,69,90)"/><path d=" M 714.2 480.542 C 715.361 486.721 719.081 490.527 723.854 489.632 C 728.676 488.726 730.575 483.62 729.424 477.489 C 728.36 471.826 724.73 467.468 719.815 468.391 C 714.995 469.296 713.049 474.41 714.2 480.542 Z  M 736.915 475.84 C 738.857 486.184 733.765 493.634 724.544 495.366 C 715.184 497.124 708.379 491.085 706.69 482.099 C 704.915 472.645 709.625 464.442 718.939 462.692 C 728.628 460.873 735.279 467.134 736.915 475.84 Z " fill="rgb(59,69,90)"/><path d=" M 744.596 464.608 L 736.124 466.2 L 734.998 460.21 L 759.243 455.654 L 760.369 461.646 L 751.757 463.264 L 756.557 488.818 L 749.396 490.164 L 744.596 464.608 Z " fill="rgb(59,69,90)"/><path d=" M 785.225 469.624 L 773.617 471.804 L 775.023 479.293 L 787.988 476.857 L 789.087 482.708 L 768.961 486.488 L 763.035 454.942 L 782.506 451.285 L 783.605 457.135 L 771.296 459.447 L 772.526 466 L 784.134 463.82 L 785.225 469.624 Z " fill="rgb(59,69,90)"/><path d=" M 789.196 482.68 L 796.151 483.17 L 799.348 495.862 L 793.28 502.365 L 785.21 501.541 L 785.53 494.694 L 783.777 494.298 L 782.572 491.922 L 789.196 482.68 Z " fill="rgb(228,210,184)"/><path d=" M 762.181 345.777 L 781.683 354.902 L 815.945 416.026 L 801.914 483.549 L 787.047 483.087 L 790.96 423.674 L 768.736 389.475 L 762.181 345.777 Z " fill="rgb(48,83,153)"/></g></g></g></svg>